Coordinates
version=1
nRows=13
nColumns=34
inDegrees=yes

Units are S.I. units (second, meters, Newtons, ...)
If the header above contains a line with 'inDegrees', this indicates whether rotational values are in degrees (yes) or radians (no).

endheader
time	pelvis_tilt	pelvis_list	pelvis_rotation	pelvis_tx	pelvis_ty	pelvis_tz	hip_flexion_r	hip_adduction_r	hip_rotation_r	knee_angle_r	ankle_angle_r	subtalar_angle_r	mtp_angle_r	hip_flexion_l	hip_adduction_l	hip_rotation_l	knee_angle_l	ankle_angle_l	subtalar_angle_l	mtp_angle_l	lumbar_extension	lumbar_bending	lumbar_rotation	arm_flex_r	arm_add_r	arm_rot_r	elbow_flex_r	pro_sup_r	arm_flex_l	arm_add_l	arm_rot_l	elbow_flex_l	pro_sup_l
      5.48333330	      9.78387110	    -16.70842800	    -26.76053071	      2.99130879	      1.05672270	      0.91737003	     -3.53309047	      6.64495377	     -6.99966649	     22.02360989	     15.82474437	     14.06862801	      0.00000000	      2.25385063	      3.19859267	      7.54277696	     26.10306003	      9.20602181	    -14.50882409	      0.00000000	    -13.92643884	      2.90671483	     -2.12830101	     22.87626475	      1.92050558	      9.87703226	     18.62120300	    117.76649090	     19.25663476	     -3.89057774	     25.64397378	     29.47124712	    113.02932296
      5.50000000	      9.16877186	    -16.61383429	    -26.22212477	      2.99196115	      1.05540444	      0.91936592	     -2.80428309	      7.11735191	     -7.25184720	     22.32710463	     15.78269396	     13.20463594	      0.00000000	      3.37351263	      2.85153870	      7.85217935	     27.11223335	      8.84958939	    -14.59197047	      0.00000000	    -13.33033576	      3.12861833	     -2.45136109	     22.73515363	      1.96244843	      9.98087743	     18.47078252	    117.78657538	     19.67911081	     -3.99929656	     24.94331224	     28.16084385	    112.66588935
      5.51666670	      9.04484534	    -16.47059155	    -25.90222149	      2.99350481	      1.05499246	      0.92235580	     -2.79812302	      7.28686127	     -7.29281715	     22.30634509	     16.12404802	     12.87619699	      0.00000000	      3.57423090	      2.68192369	      7.71685733	     27.40018232	      8.26268945	    -14.05863022	      0.00000000	    -12.97142303	      3.00790776	     -2.66651016	     22.41164150	      2.06065960	     10.02344584	     18.58597802	    117.78960521	     19.61235508	     -4.50086178	     24.60266522	     27.84014121	    112.57549760
      5.53333330	      8.58533606	    -16.33081168	    -25.49863356	      2.99480325	      1.05425309	      0.92518998	     -2.35216859	      7.66124932	     -7.36697011	     22.42995086	     16.06874222	     11.76440528	      0.00000000	      4.58596115	      1.83377231	      6.00799409	     28.75616776	     11.29401141	    -10.03597970	      0.00000000	    -12.26653917	      3.07502788	     -3.07697142	     22.01003499	      2.17797754	      9.78108017	     19.00056132	    117.66915352	     19.25835370	     -4.66397012	     22.29640404	     27.77748185	    112.20275416
      5.55000000	      8.60208819	    -16.26290733	    -25.25650749	      2.99567800	      1.05450271	      0.92818164	     -2.58850257	      7.89838077	     -7.08418796	     22.17128745	     15.98470664	     11.17954973	      0.00000000	      4.69195879	      1.32780884	      4.93770739	     29.33043256	     13.58143420	     -5.48384193	      0.00000000	    -12.03583354	      2.89757449	     -3.08613554	     21.74212076	      2.20469919	     10.01701022	     19.11138073	    117.71447032	     19.17723602	     -4.88853023	     21.15487928	     27.58884417	    112.51836955
      5.56666670	      8.54350453	    -16.24589268	    -25.28307473	      2.99634917	      1.05479514	      0.93114834	     -2.79157279	      8.25363943	     -6.36247898	     21.84937858	     15.73028474	     10.20449096	      0.00000000	      4.69747000	      0.78248615	      3.89526678	     29.60192209	     14.83975570	     -2.15103786	      0.00000000	    -11.71237200	      2.84304703	     -2.68150493	     21.34656504	      2.00158208	     10.45537266	     19.25116030	    117.82985342	     19.10857822	     -4.85512868	     19.82182765	     27.42661144	    113.15370986
      5.58333330	      8.56427964	    -16.07407183	    -25.14624332	      2.99737711	      1.05498992	      0.93347784	     -2.92652168	      8.24860332	     -6.43885876	     21.72610067	     15.93540741	      9.98038522	      0.00000000	      4.53149457	      0.86115387	      4.20725356	     29.53539244	     15.07128426	     -1.79921150	      0.00000000	    -11.36000668	      2.66543096	     -2.28874732	     20.92792084	      1.74397951	     10.50711089	     19.15854747	    117.84457152	     19.08400784	     -4.86502341	     19.62087175	     27.32647196	    113.18833916
      5.60000000	      8.89119133	    -15.97945315	    -24.79744456	      2.99909064	      1.05620365	      0.93607790	     -3.75491256	      8.35574986	     -6.01490894	     20.94489641	     15.68658048	      9.25211591	      0.00000000	      3.84792537	      0.63022534	      3.45437959	     29.17272208	     15.94664720	      0.73112204	      0.00000000	    -11.24801150	      2.42243475	     -2.22460414	     20.28563964	      1.38231497	     11.29779701	     19.61329478	    118.04224144	     18.73635085	     -4.61207593	     17.38709208	     27.03257293	    114.23641444
      5.61666670	      8.84931947	    -15.61619180	    -24.38571117	      3.00121655	      1.05652351	      0.93828722	     -3.96999295	      8.24910655	     -6.16968889	     20.48589075	     15.91698238	      8.90003566	      0.00000000	      3.72002994	      0.76100442	      3.45084518	     28.92092930	     15.63170193	      1.35786437	      0.00000000	    -10.64898413	      2.14816184	     -2.15263278	     19.61546344	      1.09906101	     11.45424302	     19.67287950	    118.08007791	     18.55931119	     -4.57555978	     17.17003160	     26.60089734	    114.36770131
      5.63333330	      9.10886981	    -15.33889567	    -23.66904931	      3.00355551	      1.05735957	      0.93984397	     -4.53752386	      8.14024607	     -6.22337866	     19.95807018	     15.86644458	      8.28109399	      0.00000000	      3.11156501	      0.75497332	      2.88793763	     28.30431589	     15.31992803	      3.01940673	      0.00000000	    -10.45364693	      1.83740741	     -2.22171239	     18.88989298	      0.60040137	     12.30027736	     20.42576279	    118.29023852	     18.68606545	     -4.28011781	     16.54915552	     25.63911989	    114.92812982
      5.65000000	      9.01382398	    -15.12441433	    -23.23727006	      3.00526565	      1.05780823	      0.94169199	     -4.80621974	      8.21375405	     -6.30869387	     19.32895498	     15.70583287	      8.10009202	      0.00000000	      2.93598298	      0.55617681	      2.26376972	     27.81359602	     14.24402655	      3.67511928	      0.00000000	    -10.03193825	      1.73138013	     -2.14873790	     18.41230705	      0.26013323	     12.78036057	     20.56035822	    118.41134089	     18.61830519	     -4.09188058	     16.36019987	     25.07829825	    115.17836560
      5.66666670	      9.46466000	    -15.24621457	    -23.02791578	      3.00612792	      1.05933616	      0.94371428	     -5.88307154	      8.46040903	     -5.72098352	     18.39494203	     15.33621611	      7.37739991	      0.00000000	      1.87372344	      0.11025554	      0.76929572	     26.95207710	     13.75525031	      5.31290176	      0.00000000	    -10.43927417	      1.69160960	     -1.68965581	     18.30078527	     -0.51568801	     15.69785849	     20.83410582	    119.08456746	     18.92125243	     -3.75430882	     15.93530503	     24.16433085	    116.65227616
      5.68333330	      9.31899843	    -15.04400314	    -22.68885268	      3.00679541	      1.05965678	      0.94520315	     -6.05569829	      8.58225796	     -5.69656596	     17.71027023	     15.10787820	      6.89039097	      0.00000000	      1.78478041	      0.04268827	      0.52284807	     26.49766208	     12.89169087	      5.47580269	      0.00000000	    -10.16563696	      1.58982450	     -1.50845857	     17.97828906	     -0.96658623	     16.62724653	     21.41587555	    119.23474309	     19.19014648	     -3.42239150	     15.65361653	     23.19493528	    117.16753248
